                        <svg id="bioenterprise-logo" aria-labelledby="site-title" xmlns="http://www.w3.org/2000/svg" viewBox="0 0 238.26 53.16">

        <title id="site-title">Bioenterprise &#8211; Canada’s Food &amp; Agri-Tech Engine</title>

        <g class="logo-alt">
            <path d="m13.82,46.01s-.06-.04-.09-.05v2.96h4.61v-2.07c-1.43.16-2.99-.06-4.52-.84" fill="currentColor" />
            <path d="m18.78,46.78v2.14h4.5v-4.48h-.32c-.04.06-.09.12-.13.17-.94,1.06-2.39,1.88-4.05,2.17Z" fill="currentColor" />
            <path d="m10.39,39.29h-1.19v4.71h2.41c-.41-.61-.74-1.3-.96-2.05-.26-.89-.33-1.8-.26-2.67" fill="currentColor" />
            <path d="m23.29,44.01v-.02s0,0,0,.02h0Z" fill="currentColor" />
            <path d="m21.95,34.6c.55.7,1,1.42,1.33,2.16v-2.16h-1.33Z" fill="currentColor" />
            <path d="m10.45,38.86c.13-.86.41-1.68.86-2.4.5-.81,1.21-1.28,1.98-1.56v-.3h-4.08v4.26h1.25Z" fill="currentColor" />
            <path d="m25.88,15.03v.1s-.01,19.49-.01,19.49h-2.13v3.33c.1.31.18.62.24.93h1.89v.44h-1.82c.21,1.39.08,2.7-.31,3.77v.94h2.13v.43h-2.13v4.17c-.31.26-.66.5-1.06.74h-3.89v1.35c-.15.02-.29.05-.45.08v-1.43h-4.61v1.07c-.15-.04-.3-.08-.44-.12v-.95h-2.2c-.24-.14-.46-.29-.66-.44h2.87v-3.23c-.51-.34-.96-.76-1.35-1.25h-2.73v3.37c-.17-.2-.31-.39-.44-.59v-2.78h-.87v-.43h.87v-4.72h-.87v-.44h.87v-4.26h-.87V15.02c-.04-.18-.84-4.39-7.89-4.06l.11,2.26c4.48-.21,5.33,1.73,5.46,2.13v29.43c0,.08.14,7.25,10.49,8.38h1.65c10.35-1.13,10.49-8.3,10.49-8.38V15.35c.13-.4.97-2.34,5.45-2.13l.11-2.26c-7.04-.33-7.84,3.88-7.87,4.06" fill="currentColor" />
            <path d="m84.3,37.78v-21.7h12.48v2.33h-9.27v6.9h7.71v2.33h-7.71v7.89h9.91v2.24h-13.12Z" fill="currentColor" />
            <path d="m98.71,37.78v-21.7h3.12l11.19,16.67v-16.67h2.75v21.7h-3.12l-11.19-16.59v16.59h-2.75Z" fill="currentColor" />
            <path d="m124.48,37.78v-19.36h-7.61v-2.33h18.3v2.33h-7.58v19.36h-3.12Z" fill="currentColor" />
            <path d="m136.32,37.78v-21.7h12.48v2.33h-9.27v6.9h7.71v2.33h-7.71v7.89h9.91v2.24h-13.12Z" fill="currentColor" />
            <path d="m153.93,26.27h1.01c1.93,0,3.39-.36,4.4-1.16,1.01-.8,1.56-1.88,1.56-3.4,0-2.23-1.65-3.4-4.95-3.4h-2.02v7.95Zm-3.21,11.33v-21.52h6.79c2.11,0,3.76.45,4.95,1.34,1.1.89,1.74,2.23,1.74,4.02,0,1.34-.37,2.59-1.19,3.66-.73,1.07-1.84,1.88-3.3,2.5,0,0,1.56.09,3.12,2.06,1.1,1.43,1.1,2.32,2.57,5.18.27.45,1.74,2.95,1.74,2.95h-4.04s-.55-1.07-1.01-2.14c-1.01-2.32-1.38-4.02-2.02-4.91-1.56-2.32-3.21-2.06-3.21-2.06h-2.93v9.1h-3.21v-.18Z" fill="currentColor" />
            <path d="m170.72,26.93h1.28c1.84,0,3.3-.45,4.31-1.26,1.01-.81,1.56-2.06,1.56-3.59,0-1.26-.37-2.24-1.19-2.78-.82-.54-2.11-.81-3.94-.81h-1.93v8.43h-.09Zm-3.12,10.85v-21.7h6.06c1.74,0,3.12.18,4.04.45.92.27,1.74.81,2.29,1.43.83.9,1.19,2.24,1.19,3.77,0,2.33-.82,4.12-2.38,5.47-1.56,1.34-3.85,1.97-6.7,1.97h-1.38v8.61h-3.12Z" fill="currentColor" />
            <path d="m202.92,16.08h-3.12v21.7h3.12v-21.7Z" fill="currentColor" />
            <path d="m205.03,37.42v-3.05c2.48,1.08,4.59,1.7,6.24,1.7,1.19,0,2.2-.36,3.03-.99.73-.63,1.1-1.43,1.1-2.51,0-.81-.28-1.61-.73-2.15-.46-.63-1.38-1.26-2.75-1.97l-1.56-.9c-1.93-1.08-3.21-2.06-4.04-2.96-.73-.9-1.19-1.97-1.19-3.23,0-1.7.64-3.05,1.84-4.12,1.28-1.08,2.84-1.61,4.77-1.61,1.74,0,3.49.27,5.41.81v2.87c-2.29-.9-4.04-1.34-5.23-1.34-1.1,0-2.02.27-2.66.81-.73.54-1.1,1.26-1.1,2.15,0,.72.27,1.34.73,1.88.55.54,1.47,1.26,2.84,1.97l1.56.9c1.93,1.08,3.3,2.06,4.04,3.05.73.99,1.1,2.06,1.1,3.41,0,1.88-.73,3.41-2.11,4.57-1.47,1.17-3.3,1.7-5.69,1.7-1.28-.09-3.21-.36-5.6-.99Z" fill="currentColor" />
            <path d="m220.72,37.78v-21.7h12.38v2.33h-9.26v6.9h7.8v2.33h-7.8v7.89h9.91v2.24h-13.03Z" fill="currentColor" />
            <path d="m185.58,26.3h1.01c1.93,0,3.4-.36,4.4-1.17,1.01-.81,1.56-1.88,1.56-3.41,0-2.24-1.65-3.41-4.95-3.41h-2.02v7.98Zm-3.12,11.31v-21.53h6.7c2.11,0,3.76.45,4.95,1.34,1.1.9,1.74,2.24,1.74,4.03,0,1.34-.37,2.6-1.19,3.68-.73,1.08-1.83,1.88-3.3,2.51,0,0,1.56.09,3.12,2.06,1.1,1.43,1.1,2.33,2.57,5.2.28.45,1.68,2.88,1.68,2.88h-3.94s-.48-1-.94-2.08c-1.01-2.33-1.38-4.03-2.02-4.93-1.56-2.33-3.21-2.06-3.21-2.06h-2.94v9.07h-3.21v-.18Z" fill="currentColor" />
            <path d="m236.36,17.04h.21c.24,0,.44-.08.44-.29,0-.15-.12-.3-.44-.3-.1,0-.16,0-.21.01v.58Zm0,.95h-.29v-1.71c.15-.02.29-.04.51-.04.28,0,.46.05.56.13.11.07.17.19.17.35,0,.23-.16.36-.35.41h0c.16.04.26.18.3.43.04.26.09.37.12.42h-.3c-.04-.05-.09-.21-.12-.44-.04-.22-.16-.3-.39-.3h-.2v.74h0Zm.3-2.18c-.71,0-1.29.58-1.29,1.29s.58,1.3,1.3,1.3c.72,0,1.29-.57,1.29-1.29s-.57-1.3-1.29-1.3h0Zm0-.24c.88,0,1.59.68,1.59,1.53s-.71,1.54-1.6,1.54-1.6-.68-1.6-1.54.72-1.53,1.6-1.53h0Z" fill="currentColor" />
            <path d="m31.44,18.23h.24c.27,0,.49-.09.49-.33,0-.17-.13-.34-.49-.34-.11,0-.18,0-.24.02v.65Zm0,1.07h-.32v-1.92c.17-.02.33-.05.57-.05.31,0,.51.06.63.15.12.08.19.21.19.4,0,.25-.18.41-.4.47v.02c.18.03.3.19.34.47.05.3.1.42.13.48h-.34c-.05-.06-.1-.24-.14-.49-.05-.25-.18-.34-.44-.34h-.23v.83h0Zm.34-2.46c-.8,0-1.46.65-1.46,1.45s.66,1.46,1.47,1.46c.81,0,1.45-.64,1.45-1.45s-.64-1.46-1.45-1.46h0Zm0-.27c.99,0,1.79.77,1.79,1.72s-.8,1.73-1.8,1.73-1.81-.76-1.81-1.73.81-1.72,1.81-1.72h0Z" fill="currentColor" />
            <path d="m46.42,48.72l.55.54c-.64.63-1.47,1.08-2.76,1.08-2.3,0-3.68-1.44-3.68-3.41s1.56-3.41,3.95-3.41c1.1,0,2.02.36,2.57.9l-.46.54c-.09.09-.18.18-.28.18-.37,0-.55-.54-1.84-.54-1.47,0-2.48.9-2.48,2.34,0,1.53,1.01,2.34,2.3,2.34.74,0,1.2-.09,1.66-.54.09-.09.18-.09.28-.09.09.09.18.09.18.09Z" fill="currentColor" />
            <path d="m54.79,50.25h-1.1c-.28,0-.37-.09-.46-.27l-.55-1.35h-3.22l-.55,1.35c-.09.18-.28.27-.46.27h-1.1l3.03-6.65h1.47l2.94,6.65Zm-4.97-2.52h2.48l-.92-2.25c-.09-.18-.18-.45-.28-.81-.09.27-.18.63-.28.81l-1.01,2.25Z" fill="currentColor" />
            <path d="m56.82,43.78l4.05,4.4v-4.67h1.29v6.65h-.74c-.18,0-.37-.09-.46-.18l-4.05-4.4v4.58h-1.29v-6.65h.74c.28.09.37.09.46.27Z" fill="currentColor" />
            <path d="m70.42,50.25h-1.1c-.28,0-.37-.09-.46-.27l-.55-1.35h-3.22l-.55,1.35c-.09.18-.28.27-.46.27h-1.1l3.03-6.65h1.47l2.94,6.65Zm-4.97-2.52h2.48l-.92-2.25c-.09-.18-.18-.45-.28-.81-.09.27-.18.63-.28.81l-1.01,2.25Z" fill="currentColor" />
            <path d="m74.1,50.25h-2.94v-6.65h2.94c2.3,0,3.86,1.35,3.86,3.32.09,1.98-1.47,3.32-3.86,3.32Zm0-5.66h-1.47v4.67h1.47c1.47,0,2.39-.9,2.39-2.34.09-1.44-.83-2.34-2.39-2.34Z" fill="currentColor" />
            <path d="m85.69,50.25h-1.1c-.28,0-.37-.09-.46-.27l-.55-1.35h-3.22l-.64,1.35c-.09.18-.28.27-.46.27h-1.1l3.03-6.65h1.47l3.03,6.65Zm-5.06-2.52h2.48l-.92-2.25c-.09-.18-.18-.45-.28-.81-.09.27-.18.63-.28.81l-1.01,2.25Z" fill="currentColor" />
            <path d="m86.24,43.24c.28.36.37.72.37.99,0,.63-.37,1.17-1.01,1.62l-.37-.18c-.09,0-.09-.09-.09-.18s0-.09.09-.18c.18-.18.46-.45.46-.9,0-.18-.09-.45-.28-.72l-.09-.09c0-.09.09-.18.18-.18l.74-.18Z" fill="currentColor" />
            <path d="m91.94,44.77c-.09.09-.18.18-.28.18-.28,0-.64-.45-1.56-.45-.83,0-1.2.36-1.2.81,0,1.26,3.59.54,3.59,2.79,0,1.17-1.01,2.16-2.67,2.16-1.01,0-1.93-.36-2.48-.9l.46-.63c.09-.09.18-.18.37-.18.37,0,.74.63,1.84.63.83,0,1.29-.36,1.29-.99,0-1.44-3.59-.45-3.59-2.88,0-.99.92-1.89,2.48-1.89.92,0,1.66.27,2.21.72l-.46.63Z" fill="currentColor" />
            <path d="m100.4,43.6v.99h-3.4v1.98h2.85v.99h-2.85v2.7h-1.47v-6.65h4.87Z" fill="currentColor" />
            <path d="m105,50.34c-2.3,0-3.86-1.44-3.86-3.41s1.56-3.41,3.86-3.41,3.86,1.44,3.86,3.41c.09,1.98-1.56,3.41-3.86,3.41Zm0-5.75c-1.47,0-2.48.9-2.48,2.34s.92,2.34,2.48,2.34,2.39-.9,2.39-2.34c.09-1.44-.83-2.34-2.39-2.34Z" fill="currentColor" />
            <path d="m113.55,50.34c-2.3,0-3.86-1.44-3.86-3.41s1.56-3.41,3.86-3.41,3.86,1.44,3.86,3.41-1.56,3.41-3.86,3.41Zm0-5.75c-1.47,0-2.48.9-2.48,2.34s.92,2.34,2.48,2.34,2.39-.9,2.39-2.34-.92-2.34-2.39-2.34Z" fill="currentColor" />
            <path d="m121.46,50.25h-2.94v-6.65h2.94c2.3,0,3.86,1.35,3.86,3.32s-1.56,3.32-3.86,3.32Zm0-5.66h-1.47v4.67h1.47c1.47,0,2.39-.9,2.39-2.34.09-1.44-.92-2.34-2.39-2.34Z" fill="currentColor" />
            <path d="m133.32,45.04l-.83.18h-.09c-.09,0-.18-.09-.27-.18-.09-.36-.37-.63-.92-.63s-.92.36-.92.81c0,.36.18.63.64,1.08l2.02,1.8c.28-.36.37-.81.46-1.26,0-.18.09-.27.28-.27h.83c0,.81-.28,1.53-.74,2.16l1.65,1.44h-1.29c-.28,0-.37-.09-.55-.18l-.55-.45c-.64.45-1.47.72-2.48.72-1.19,0-2.39-.72-2.39-1.89,0-.81.64-1.53,1.56-1.89-.37-.45-.55-.9-.55-1.35,0-.9.83-1.71,2.21-1.71,1.1.09,1.93.81,1.93,1.62Zm-2.57,4.4c.64,0,1.1-.18,1.56-.45l-2.02-1.8c-.55.36-.83.72-.83,1.17,0,.63.55,1.08,1.29,1.08Z" fill="currentColor" />
            <path d="m144.91,50.25h-1.1c-.28,0-.37-.09-.46-.27l-.55-1.35h-3.22l-.55,1.35c-.09.18-.27.27-.46.27h-1.1l3.03-6.65h1.47l2.94,6.65Zm-4.96-2.52h2.48l-.92-2.25c-.09-.18-.18-.45-.28-.81-.09.27-.18.63-.28.81l-1.01,2.25Z" fill="currentColor" />
            <path d="m150.52,49.08v-1.17h-.92c-.18,0-.28-.09-.28-.27v-.72h2.57v2.7c-.83.45-1.66.72-2.94.72-2.21,0-3.86-1.44-3.86-3.41s1.56-3.41,3.95-3.41c1.29,0,2.12.36,2.76.9l-.46.54c-.09.09-.18.18-.37.18-.09,0-.18,0-.28-.09-.46-.27-.92-.45-1.84-.45-1.47,0-2.48.9-2.48,2.34,0,1.53,1.01,2.43,2.48,2.43.74,0,1.2-.09,1.65-.27Z" fill="currentColor" />
            <path d="m154.65,47.64v2.61h-1.47v-6.65h2.3c2.12,0,2.94.81,2.94,1.89,0,.9-.64,1.62-1.65,1.89.18.09.37.18.46.36l1.93,2.43h-1.29c-.27,0-.46-.09-.55-.27l-1.65-2.16c-.09-.18-.28-.18-.55-.18h-.46v.09Zm0-.9h.92c1.1,0,1.56-.45,1.56-1.17s-.46-1.08-1.56-1.08h-.92v2.25Z" fill="currentColor" />
            <path d="m161.73,50.25h-1.47v-6.65h1.47v6.65Z" fill="currentColor" />
            <path d="m163.2,47.01h2.76v.99h-2.76v-.99Z" fill="currentColor" />
            <path d="m171.76,43.6v.99h-2.3v5.66h-1.47v-5.66h-2.3v-.99h6.07Z" fill="currentColor" />
            <path d="m177.46,43.6v.99h-3.4v1.89h2.67v.99h-2.67v1.8h3.4v.99h-4.87v-6.65h4.87Z" fill="currentColor" />
            <path d="m184.17,48.72l.55.54c-.64.63-1.47,1.08-2.76,1.08-2.3,0-3.68-1.44-3.68-3.41s1.56-3.41,3.95-3.41c1.1,0,2.02.36,2.57.9l-.46.54c-.09.09-.18.18-.28.18-.37,0-.55-.54-1.84-.54-1.47,0-2.48.9-2.48,2.34,0,1.53,1.01,2.34,2.3,2.34.74,0,1.2-.09,1.66-.54.09-.09.18-.09.27-.09.09.09.18.09.18.09Z" fill="currentColor" />
            <path d="m192.35,50.25h-1.47v-2.88h-3.59v2.88h-1.47v-6.65h1.47v2.88h3.59v-2.88h1.47v6.65Z" fill="currentColor" />
        </g>
        <g class="logo-primary">
            <path d="m15.46,24.74c-.71-.7-2.84-1.74-3.99-2.43-1.16-.7-1.95-2.34-1.69-1.99.26.35,1.41,1.82,2.49,1.82.35,0,.27-1.21.27-1.21,0,0,.44,1.39.62,1.65.18.26,1.51,1.04,1.51,1.04l.26-2.25s0,2.08.62,2.52c.62.43,1.15,2.17,1.15,2.17,0,0-.53-.61-1.24-1.3m-.07-9.09c-.71-.7-2.84-1.74-3.99-2.43-1.15-.7-1.95-2.34-1.69-1.99.27.35,1.41,1.82,2.48,1.82.36,0,.27-1.22.27-1.22,0,0,.44,1.39.62,1.65.18.26,1.51,1.04,1.51,1.04l.26-2.25s0,2.08.62,2.52c.62.44,1.15,2.17,1.15,2.17,0,0-.53-.61-1.24-1.3m-7.11-8.65c-.71-.7-2.84-1.74-3.99-2.43-1.15-.7-1.95-2.34-1.69-2,.26.35,1.41,1.82,2.49,1.82.35,0,.26-1.21.26-1.21,0,0,.44,1.39.62,1.65.18.26,1.51,1.04,1.51,1.04l.26-2.25s0,2.08.62,2.51c.62.43,1.15,2.17,1.15,2.17,0,0-.53-.61-1.24-1.3Zm18.97-3.87l1.03.6-3.03,5.1-2.95-3.74-4.64,8.09v3.57c-.08-.28-.18-.62-.2-.73-.21-.83-.85-3.05-2.12-4.05-.16-.13-.34-.23-.52-.32-2.17-2.39-4.15-3.17-4.15-3.17-.07-.28-.3-1-.33-1.11-.21-.83-.85-3.05-2.12-4.05-1.55-1.23-4.06-.19-6.19-1.89-.17-.13,0,4.91,1.64,6.8,1.43,1.64,4.82,1.13,6.08,1.33.23.04,1.31.22,1.97.67.22.15.64.55,1.11,1-1.19-.11-2.5-.21-3.69-1.16-.17-.13,0,4.91,1.64,6.81,1.43,1.64,4.82,1.13,6.08,1.33.23.04.58.26.76.95v6.9s-.45-3.64-2.24-5.01c-1.57-1.2-4.06-.19-6.19-1.89-.17-.13,0,4.92,1.64,6.8,1.64,1.89,5.26,1.24,5.93,1.31.45.04.83.26.83,1.69,0,1.61-.01,4.23.12,5.2.06.45.11,1.14,1.01,2.53l.33.56.39.65c.03.08.06.15.09.23.53,1.44-.1,2.68-.18,2.2-.1-.66-.17-1.15-.49-1.61-.96-1.4-1.98-1.65-1.98-1.65h.04c-.95-.32-2.11-.46-3.32.56-.94.79-1.27,2.39-.88,3.74.35,1.25,1.11,2.24,2.07,2.73,2.49,1.27,5.14.48,6.37-.9.51-.58.92-1.56.97-2.63.04-1.17-.18-2.73-1.91-4.81-.24-.29-1.13-1.47-1.12-3.04V13.49c0-.13,3.32-5.82,3.32-5.82l3,3.61,4.05-6.83,1.04.6.85-5.05-4.14,3.15h0Z" fill="currentColor" />
            <path d="m43.85,35.54h.64c2.29,0,3.76-.18,4.5-.45,1.28-.54,1.93-1.52,1.93-2.96,0-1.26-.55-2.33-1.74-3.23s-2.66-1.26-4.4-1.26h-.92v7.89Zm0-9.86h1.01c1.65,0,2.94-.36,3.85-1.08.92-.72,1.38-1.7,1.38-3.05,0-2.15-1.65-3.14-5.05-3.14h-1.19v7.26Zm-3.12,12.1v-21.7h5.78c2.2,0,3.94.45,5.14,1.26,1.19.81,1.74,1.97,1.74,3.59,0,1.26-.37,2.33-1.19,3.32-.83.99-1.93,1.7-3.3,2.24,3.58,1.08,5.41,3.05,5.41,5.92,0,1.26-.37,2.42-1.19,3.41-.64.72-1.38,1.26-2.2,1.61-.83.27-2.02.45-3.58.45h-6.61v-.09Z" fill="currentColor" />
            <path d="m59.26,16.08h-3.12v21.7h3.12v-21.7Z" fill="currentColor" />
            <path d="m71.83,36.08c2.2,0,3.94-.81,5.23-2.42,1.28-1.61,1.83-3.85,1.83-6.72s-.64-5.02-1.83-6.63c-1.28-1.61-3.03-2.42-5.23-2.42s-3.94.81-5.23,2.42c-1.28,1.61-1.83,3.85-1.83,6.63s.64,5.11,1.83,6.72c1.28,1.61,3.03,2.42,5.23,2.42Zm0,2.24c-3.12,0-5.69-1.08-7.61-3.14-1.93-2.06-2.84-4.84-2.84-8.34s.92-6.19,2.84-8.34c1.93-2.06,4.4-3.14,7.61-3.14s5.69,1.08,7.61,3.14c1.93,2.06,2.84,4.84,2.84,8.34s-.92,6.19-2.84,8.34-4.4,3.14-7.61,3.14Z" fill="currentColor" />
            <path d="m200.81,43.6v.99h-3.4v1.89h2.67v.99h-2.67v1.8h3.4v.99h-4.87v-6.65h4.87Z" fill="currentColor" />
            <path d="m203.21,43.78l4.05,4.4v-4.67h1.29v6.65h-.74c-.18,0-.37-.09-.46-.18l-4.05-4.4v4.58h-1.29v-6.65h.74c.28.09.37.09.46.27Z" fill="currentColor" />
            <path d="m215.07,49.08v-1.17h-.92c-.18,0-.28-.09-.28-.27v-.72h2.57v2.7c-.83.45-1.65.72-2.94.72-2.21,0-3.86-1.44-3.86-3.41s1.56-3.41,3.95-3.41c1.29,0,2.11.36,2.76.9l-.46.54c-.09.09-.18.18-.37.18-.09,0-.18,0-.28-.09-.46-.27-.92-.45-1.84-.45-1.47,0-2.48.9-2.48,2.34,0,1.53,1.01,2.43,2.48,2.43.83,0,1.29-.09,1.65-.27Z" fill="currentColor" />
            <path d="m219.39,50.25h-1.47v-6.65h1.47v6.65Z" fill="currentColor" />
            <path d="m222.33,43.78l4.05,4.4v-4.67h1.29v6.65h-.83c-.18,0-.37-.09-.46-.18l-4.05-4.4v4.58h-1.29v-6.65h.74c.28.09.37.09.55.27Z" fill="currentColor" />
            <path d="m233.92,43.6v.99h-3.4v1.89h2.67v.99h-2.67v1.8h3.4v.99h-4.87v-6.65h4.87Z" fill="currentColor" />
        </g>
    </svg>
