<svg width="130" height="28" viewBox="0 0 130 28" xmlns="http://www.w3.org/2000/svg">
  <!-- Mini trellis icon -->
  <g transform="translate(0, 2)">
    <line x1="2" y1="22" x2="2" y2="4" stroke="#1B4332" stroke-width="1.8" stroke-linecap="round"/>
    <line x1="9.5" y1="22" x2="9.5" y2="4" stroke="#1B4332" stroke-width="1.8" stroke-linecap="round"/>
    <line x1="17" y1="22" x2="17" y2="4" stroke="#1B4332" stroke-width="1.8" stroke-linecap="round"/>
    <line x1="0" y1="17" x2="19" y2="17" stroke="#1B4332" stroke-width="0.8" stroke-linecap="round"/>
    <line x1="0" y1="10" x2="19" y2="10" stroke="#1B4332" stroke-width="0.8" stroke-linecap="round"/>
    <!-- Bottom — green -->
    <circle cx="2" cy="17" r="2" fill="#48B87A"/>
    <circle cx="9.5" cy="17" r="1.8" fill="#48B87A" opacity="0.9"/>
    <circle cx="17" cy="17" r="1.5" fill="#48B87A" opacity="0.8"/>
    <!-- Middle — chartreuse -->
    <circle cx="2" cy="10" r="2.2" fill="#8CC63F"/>
    <circle cx="9.5" cy="10" r="2" fill="#8CC63F" opacity="0.9"/>
    <circle cx="17" cy="10" r="1.8" fill="#8CC63F" opacity="0.7"/>
    <!-- Top — gold -->
    <circle cx="2" cy="4" r="2" fill="#D4A828" opacity="0.8"/>
    <circle cx="9.5" cy="2" r="1.5" fill="#D4A828" opacity="0.6"/>
  </g>
  <!-- "Trellis" wordmark as paths (DM Serif Display approximation) -->
  <g transform="translate(25, 4)" fill="#1a1a18">
    <!-- T -->
    <path d="M0,1.5 L0,0 L11.5,0 L11.5,1.5 L7,1.5 L7,18 L4.5,18 L4.5,1.5 Z"/>
    <!-- r -->
    <path d="M13.5,5 L16,5 L16,7.2 C16.8,5.8 18,5 19.5,5 L20.5,5 L20.5,7.5 L19.2,7.5 C17.5,7.5 16,8.8 16,10.8 L16,18 L13.5,18 Z"/>
    <!-- e -->
    <path d="M22,11.5 C22,8 24.5,4.8 28,4.8 C31.5,4.8 33.5,7.8 33.5,11 L33.5,12 L24.5,12 C24.7,14.8 26.2,16.5 28.5,16.5 C30.2,16.5 31.5,15.5 32,14 L33.8,14.8 C33,16.8 31,18.3 28.5,18.3 C24.8,18.3 22,15.5 22,11.5 Z M24.5,10.2 L31,10.2 C30.8,8 29.5,6.5 28,6.5 C26.2,6.5 24.8,8 24.5,10.2 Z"/>
    <!-- l -->
    <path d="M35.5,0 L38,0 L38,18 L35.5,18 Z"/>
    <!-- l -->
    <path d="M40.5,0 L43,0 L43,18 L40.5,18 Z"/>
    <!-- i -->
    <path d="M46,0 L48.5,0 L48.5,2.5 L46,2.5 Z M46,5 L48.5,5 L48.5,18 L46,18 Z"/>
    <!-- s -->
    <path d="M51,14.5 C51,16.8 53,18.3 55.5,18.3 C58,18.3 60,16.8 60,14.8 C60,13 59,12 56.5,11.2 L54.8,10.7 C52.5,10 51,8.8 51,6.5 C51,4 53.2,4.8 55.5,4.8 C57.8,4.8 59.8,6 60.2,8 L58,8.8 C57.7,7.2 56.8,6.5 55.5,6.5 C54,6.5 53.2,7.3 53.2,8.5 C53.2,9.8 54,10.5 56,11 L57.5,11.5 C60.2,12.3 62.2,13.5 62.2,16 C62.2,18.5 59.8,20 55.5,18.3 C53.2,18.3 51,16.5 50.5,14.2 Z"/>
  </g>
</svg>
